<svg width="182" height="31" viewBox="0 0 182 31" fill="none" xmlns="http://www.w3.org/2000/svg">
<path d="M22.2 28L20.8 23.6H10.4L9 28H2L11.52 0H19.68L29.2 28H22.2ZM12.32 17.6H18.88L15.6 7.32L12.32 17.6Z" fill="#5200FF"/>
<path d="M43.3475 7.44C48.5875 7.44 52.9075 12.04 52.9075 18C52.9075 23.96 48.5875 28.56 43.3475 28.56C40.6675 28.56 38.7075 27.64 37.3875 26.12V28H31.3875V0H37.3875V9.88C38.7075 8.36 40.6675 7.44 43.3475 7.44ZM42.1475 22.88C44.9075 22.88 46.9075 21 46.9075 18C46.9075 15 44.9075 13.12 42.1475 13.12C39.3875 13.12 37.3875 15 37.3875 18C37.3875 21 39.3875 22.88 42.1475 22.88Z" fill="#5200FF"/>
<path d="M65.9094 28.56C60.0294 28.56 55.3094 23.96 55.3094 18C55.3094 12.04 60.0294 7.44 65.9094 7.44C71.7894 7.44 76.5094 12.04 76.5094 18C76.5094 23.96 71.7894 28.56 65.9094 28.56ZM65.9094 22.72C68.5094 22.72 70.5094 20.84 70.5094 18C70.5094 15.16 68.5094 13.28 65.9094 13.28C63.3094 13.28 61.3094 15.16 61.3094 18C61.3094 20.84 63.3094 22.72 65.9094 22.72Z" fill="#5200FF"/>
<path d="M92.8231 8H98.8231V28H92.8231V26.12C91.7431 27.6 89.7431 28.56 87.1031 28.56C83.0631 28.56 79.6231 25.68 79.6231 20.28V8H85.6231V19.4C85.6231 21.88 87.1831 23.04 89.1031 23.04C91.3031 23.04 92.8231 21.76 92.8231 18.92V8Z" fill="#5200FF"/>
<path d="M114.943 13.76H110.823V20.84C110.823 22.56 112.303 22.72 114.943 22.56V28C107.103 28.8 104.823 26.44 104.823 20.84V13.76H101.623V8H104.823V4.2L110.823 2.4V8H114.943V13.76Z" fill="#5200FF"/>
<path d="M156.931 0V28H150.531V11.72L143.291 23.6H142.571L135.331 11.72V28H128.931V0H135.331L142.931 12.44L150.531 0H156.931Z" fill="#5200FF"/>
<path d="M166.904 20.4C167.664 22.48 169.504 23.2 171.704 23.2C173.344 23.2 174.744 22.56 175.544 21.68L180.344 24.44C178.384 27.16 175.424 28.56 171.624 28.56C164.784 28.56 160.544 23.96 160.544 18C160.544 12.04 164.864 7.44 171.184 7.44C177.024 7.44 181.344 11.96 181.344 18C181.344 18.84 181.264 19.64 181.104 20.4H166.904ZM166.784 15.92H175.384C174.744 13.6 172.944 12.76 171.144 12.76C168.864 12.76 167.344 13.88 166.784 15.92Z" fill="#5200FF"/>
<g opacity="0.3">
<path d="M22.2 28L20.8 23.6H10.4L9 28H2L11.52 0H19.68L29.2 28H22.2ZM12.32 17.6H18.88L15.6 7.32L12.32 17.6Z" fill="white"/>
<path d="M43.3475 7.44C48.5875 7.44 52.9075 12.04 52.9075 18C52.9075 23.96 48.5875 28.56 43.3475 28.56C40.6675 28.56 38.7075 27.64 37.3875 26.12V28H31.3875V0H37.3875V9.88C38.7075 8.36 40.6675 7.44 43.3475 7.44ZM42.1475 22.88C44.9075 22.88 46.9075 21 46.9075 18C46.9075 15 44.9075 13.12 42.1475 13.12C39.3875 13.12 37.3875 15 37.3875 18C37.3875 21 39.3875 22.88 42.1475 22.88Z" fill="white"/>
<path d="M65.9094 28.56C60.0294 28.56 55.3094 23.96 55.3094 18C55.3094 12.04 60.0294 7.44 65.9094 7.44C71.7894 7.44 76.5094 12.04 76.5094 18C76.5094 23.96 71.7894 28.56 65.9094 28.56ZM65.9094 22.72C68.5094 22.72 70.5094 20.84 70.5094 18C70.5094 15.16 68.5094 13.28 65.9094 13.28C63.3094 13.28 61.3094 15.16 61.3094 18C61.3094 20.84 63.3094 22.72 65.9094 22.72Z" fill="white"/>
<path d="M92.8231 8H98.8231V28H92.8231V26.12C91.7431 27.6 89.7431 28.56 87.1031 28.56C83.0631 28.56 79.6231 25.68 79.6231 20.28V8H85.6231V19.4C85.6231 21.88 87.1831 23.04 89.1031 23.04C91.3031 23.04 92.8231 21.76 92.8231 18.92V8Z" fill="white"/>
<path d="M114.943 13.76H110.823V20.84C110.823 22.56 112.303 22.72 114.943 22.56V28C107.103 28.8 104.823 26.44 104.823 20.84V13.76H101.623V8H104.823V4.2L110.823 2.4V8H114.943V13.76Z" fill="white"/>
<path d="M156.931 0V28H150.531V11.72L143.291 23.6H142.571L135.331 11.72V28H128.931V0H135.331L142.931 12.44L150.531 0H156.931Z" fill="white"/>
<path d="M166.904 20.4C167.664 22.48 169.504 23.2 171.704 23.2C173.344 23.2 174.744 22.56 175.544 21.68L180.344 24.44C178.384 27.16 175.424 28.56 171.624 28.56C164.784 28.56 160.544 23.96 160.544 18C160.544 12.04 164.864 7.44 171.184 7.44C177.024 7.44 181.344 11.96 181.344 18C181.344 18.84 181.264 19.64 181.104 20.4H166.904ZM166.784 15.92H175.384C174.744 13.6 172.944 12.76 171.144 12.76C168.864 12.76 167.344 13.88 166.784 15.92Z" fill="white"/>
</g>
<path d="M20.2 30L18.8 25.6H8.4L7 30H0L9.52 2H17.68L27.2 30H20.2ZM10.32 19.6H16.88L13.6 9.32L10.32 19.6Z" fill="white"/>
<path d="M41.3475 9.44C46.5875 9.44 50.9075 14.04 50.9075 20C50.9075 25.96 46.5875 30.56 41.3475 30.56C38.6675 30.56 36.7075 29.64 35.3875 28.12V30H29.3875V2H35.3875V11.88C36.7075 10.36 38.6675 9.44 41.3475 9.44ZM40.1475 24.88C42.9075 24.88 44.9075 23 44.9075 20C44.9075 17 42.9075 15.12 40.1475 15.12C37.3875 15.12 35.3875 17 35.3875 20C35.3875 23 37.3875 24.88 40.1475 24.88Z" fill="white"/>
<path d="M63.9094 30.56C58.0294 30.56 53.3094 25.96 53.3094 20C53.3094 14.04 58.0294 9.44 63.9094 9.44C69.7894 9.44 74.5094 14.04 74.5094 20C74.5094 25.96 69.7894 30.56 63.9094 30.56ZM63.9094 24.72C66.5094 24.72 68.5094 22.84 68.5094 20C68.5094 17.16 66.5094 15.28 63.9094 15.28C61.3094 15.28 59.3094 17.16 59.3094 20C59.3094 22.84 61.3094 24.72 63.9094 24.72Z" fill="white"/>
<path d="M90.8231 10H96.8231V30H90.8231V28.12C89.7431 29.6 87.7431 30.56 85.1031 30.56C81.0631 30.56 77.6231 27.68 77.6231 22.28V10H83.6231V21.4C83.6231 23.88 85.1831 25.04 87.1031 25.04C89.3031 25.04 90.8231 23.76 90.8231 20.92V10Z" fill="white"/>
<path d="M112.943 15.76H108.823V22.84C108.823 24.56 110.303 24.72 112.943 24.56V30C105.103 30.8 102.823 28.44 102.823 22.84V15.76H99.6234V10H102.823V6.2L108.823 4.4V10H112.943V15.76Z" fill="white"/>
<path d="M154.931 2V30H148.531V13.72L141.291 25.6H140.571L133.331 13.72V30H126.931V2H133.331L140.931 14.44L148.531 2H154.931Z" fill="white"/>
<path d="M164.904 22.4C165.664 24.48 167.504 25.2 169.704 25.2C171.344 25.2 172.744 24.56 173.544 23.68L178.344 26.44C176.384 29.16 173.424 30.56 169.624 30.56C162.784 30.56 158.544 25.96 158.544 20C158.544 14.04 162.864 9.44 169.184 9.44C175.024 9.44 179.344 13.96 179.344 20C179.344 20.84 179.264 21.64 179.104 22.4H164.904ZM164.784 17.92H173.384C172.744 15.6 170.944 14.76 169.144 14.76C166.864 14.76 165.344 15.88 164.784 17.92Z" fill="white"/>
</svg>
