<svg width="154" height="51" viewBox="0 0 154 51" fill="none" xmlns="http://www.w3.org/2000/svg">
<path d="M17.76 38.56C9.32 38.56 3.2 32.24 3.2 24C3.2 15.76 9.32 9.44 17.76 9.44C22.84 9.44 27.32 11.96 29.76 15.92L24.24 19.12C23 16.96 20.6 15.68 17.76 15.68C12.8 15.68 9.6 19 9.6 24C9.6 29 12.8 32.32 17.76 32.32C20.6 32.32 23.04 31.04 24.24 28.88L29.76 32.08C27.36 36.04 22.88 38.56 17.76 38.56ZM42.3547 38.56C36.4747 38.56 31.7547 33.96 31.7547 28C31.7547 22.04 36.4747 17.44 42.3547 17.44C48.2347 17.44 52.9547 22.04 52.9547 28C52.9547 33.96 48.2347 38.56 42.3547 38.56ZM42.3547 32.72C44.9547 32.72 46.9547 30.84 46.9547 28C46.9547 25.16 44.9547 23.28 42.3547 23.28C39.7547 23.28 37.7547 25.16 37.7547 28C37.7547 30.84 39.7547 32.72 42.3547 32.72ZM68.0684 17.44C72.1084 17.44 75.5484 20.32 75.5484 25.72V38H69.5484V26.6C69.5484 24.12 67.9884 22.96 66.0684 22.96C63.8684 22.96 62.3484 24.24 62.3484 27.08V38H56.3484V18H62.3484V19.88C63.4284 18.4 65.4284 17.44 68.0684 17.44ZM91.3888 23.76H87.2688V30.84C87.2688 32.56 88.7488 32.72 91.3888 32.56V38C83.5488 38.8 81.2688 36.44 81.2688 30.84V23.76H78.0688V18H81.2688V14.2L87.2688 12.4V18H91.3888V23.76ZM108.915 18H114.915V38H108.915V36.12C107.595 37.64 105.635 38.56 102.955 38.56C97.7153 38.56 93.3953 33.96 93.3953 28C93.3953 22.04 97.7153 17.44 102.955 17.44C105.635 17.44 107.595 18.36 108.915 19.88V18ZM104.155 32.88C106.915 32.88 108.915 31 108.915 28C108.915 25 106.915 23.12 104.155 23.12C101.395 23.12 99.3953 25 99.3953 28C99.3953 31 101.395 32.88 104.155 32.88ZM128.917 38.56C122.837 38.56 118.317 33.96 118.317 28C118.317 22.04 122.837 17.44 128.917 17.44C132.797 17.44 136.237 19.48 137.957 22.56L132.717 25.6C132.037 24.2 130.597 23.36 128.837 23.36C126.237 23.36 124.317 25.24 124.317 28C124.317 30.76 126.237 32.64 128.837 32.64C130.597 32.64 132.077 31.8 132.717 30.4L137.957 33.4C136.237 36.52 132.837 38.56 128.917 38.56ZM152.092 23.76H147.972V30.84C147.972 32.56 149.452 32.72 152.092 32.56V38C144.252 38.8 141.972 36.44 141.972 30.84V23.76H138.772V18H141.972V14.2L147.972 12.4V18H152.092V23.76Z" fill="#5200FF"/>
<path d="M17.76 38.56C9.32 38.56 3.2 32.24 3.2 24C3.2 15.76 9.32 9.44 17.76 9.44C22.84 9.44 27.32 11.96 29.76 15.92L24.24 19.12C23 16.96 20.6 15.68 17.76 15.68C12.8 15.68 9.6 19 9.6 24C9.6 29 12.8 32.32 17.76 32.32C20.6 32.32 23.04 31.04 24.24 28.88L29.76 32.08C27.36 36.04 22.88 38.56 17.76 38.56ZM42.3547 38.56C36.4747 38.56 31.7547 33.96 31.7547 28C31.7547 22.04 36.4747 17.44 42.3547 17.44C48.2347 17.44 52.9547 22.04 52.9547 28C52.9547 33.96 48.2347 38.56 42.3547 38.56ZM42.3547 32.72C44.9547 32.72 46.9547 30.84 46.9547 28C46.9547 25.16 44.9547 23.28 42.3547 23.28C39.7547 23.28 37.7547 25.16 37.7547 28C37.7547 30.84 39.7547 32.72 42.3547 32.72ZM68.0684 17.44C72.1084 17.44 75.5484 20.32 75.5484 25.72V38H69.5484V26.6C69.5484 24.12 67.9884 22.96 66.0684 22.96C63.8684 22.96 62.3484 24.24 62.3484 27.08V38H56.3484V18H62.3484V19.88C63.4284 18.4 65.4284 17.44 68.0684 17.44ZM91.3888 23.76H87.2688V30.84C87.2688 32.56 88.7488 32.72 91.3888 32.56V38C83.5488 38.8 81.2688 36.44 81.2688 30.84V23.76H78.0688V18H81.2688V14.2L87.2688 12.4V18H91.3888V23.76ZM108.915 18H114.915V38H108.915V36.12C107.595 37.64 105.635 38.56 102.955 38.56C97.7153 38.56 93.3953 33.96 93.3953 28C93.3953 22.04 97.7153 17.44 102.955 17.44C105.635 17.44 107.595 18.36 108.915 19.88V18ZM104.155 32.88C106.915 32.88 108.915 31 108.915 28C108.915 25 106.915 23.12 104.155 23.12C101.395 23.12 99.3953 25 99.3953 28C99.3953 31 101.395 32.88 104.155 32.88ZM128.917 38.56C122.837 38.56 118.317 33.96 118.317 28C118.317 22.04 122.837 17.44 128.917 17.44C132.797 17.44 136.237 19.48 137.957 22.56L132.717 25.6C132.037 24.2 130.597 23.36 128.837 23.36C126.237 23.36 124.317 25.24 124.317 28C124.317 30.76 126.237 32.64 128.837 32.64C130.597 32.64 132.077 31.8 132.717 30.4L137.957 33.4C136.237 36.52 132.837 38.56 128.917 38.56ZM152.092 23.76H147.972V30.84C147.972 32.56 149.452 32.72 152.092 32.56V38C144.252 38.8 141.972 36.44 141.972 30.84V23.76H138.772V18H141.972V14.2L147.972 12.4V18H152.092V23.76Z" fill="white" fill-opacity="0.3"/>
<path d="M15.76 40.56C7.32 40.56 1.2 34.24 1.2 26C1.2 17.76 7.32 11.44 15.76 11.44C20.84 11.44 25.32 13.96 27.76 17.92L22.24 21.12C21 18.96 18.6 17.68 15.76 17.68C10.8 17.68 7.6 21 7.6 26C7.6 31 10.8 34.32 15.76 34.32C18.6 34.32 21.04 33.04 22.24 30.88L27.76 34.08C25.36 38.04 20.88 40.56 15.76 40.56ZM40.3547 40.56C34.4747 40.56 29.7547 35.96 29.7547 30C29.7547 24.04 34.4747 19.44 40.3547 19.44C46.2347 19.44 50.9547 24.04 50.9547 30C50.9547 35.96 46.2347 40.56 40.3547 40.56ZM40.3547 34.72C42.9547 34.72 44.9547 32.84 44.9547 30C44.9547 27.16 42.9547 25.28 40.3547 25.28C37.7547 25.28 35.7547 27.16 35.7547 30C35.7547 32.84 37.7547 34.72 40.3547 34.72ZM66.0684 19.44C70.1084 19.44 73.5484 22.32 73.5484 27.72V40H67.5484V28.6C67.5484 26.12 65.9884 24.96 64.0684 24.96C61.8684 24.96 60.3484 26.24 60.3484 29.08V40H54.3484V20H60.3484V21.88C61.4284 20.4 63.4284 19.44 66.0684 19.44ZM89.3888 25.76H85.2688V32.84C85.2688 34.56 86.7488 34.72 89.3888 34.56V40C81.5488 40.8 79.2688 38.44 79.2688 32.84V25.76H76.0688V20H79.2688V16.2L85.2688 14.4V20H89.3888V25.76ZM106.915 20H112.915V40H106.915V38.12C105.595 39.64 103.635 40.56 100.955 40.56C95.7153 40.56 91.3953 35.96 91.3953 30C91.3953 24.04 95.7153 19.44 100.955 19.44C103.635 19.44 105.595 20.36 106.915 21.88V20ZM102.155 34.88C104.915 34.88 106.915 33 106.915 30C106.915 27 104.915 25.12 102.155 25.12C99.3953 25.12 97.3953 27 97.3953 30C97.3953 33 99.3953 34.88 102.155 34.88ZM126.917 40.56C120.837 40.56 116.317 35.96 116.317 30C116.317 24.04 120.837 19.44 126.917 19.44C130.797 19.44 134.237 21.48 135.957 24.56L130.717 27.6C130.037 26.2 128.597 25.36 126.837 25.36C124.237 25.36 122.317 27.24 122.317 30C122.317 32.76 124.237 34.64 126.837 34.64C128.597 34.64 130.077 33.8 130.717 32.4L135.957 35.4C134.237 38.52 130.837 40.56 126.917 40.56ZM150.092 25.76H145.972V32.84C145.972 34.56 147.452 34.72 150.092 34.56V40C142.252 40.8 139.972 38.44 139.972 32.84V25.76H136.772V20H139.972V16.2L145.972 14.4V20H150.092V25.76Z" fill="white"/>
</svg>
