<svg width="130" height="51" viewBox="0 0 130 51" fill="none" xmlns="http://www.w3.org/2000/svg">
<path d="M15.6 10C23.32 10 29.2 16.08 29.2 24C29.2 31.92 23.32 38 15.6 38H4.4V10H15.6ZM15.6 31.84C20 31.84 23.04 28.8 23.04 24C23.04 19.2 20 16.16 15.6 16.16H10.8V31.84H15.6ZM37.9584 30.4C38.7184 32.48 40.5584 33.2 42.7584 33.2C44.3984 33.2 45.7984 32.56 46.5984 31.68L51.3984 34.44C49.4384 37.16 46.4784 38.56 42.6784 38.56C35.8384 38.56 31.5984 33.96 31.5984 28C31.5984 22.04 35.9184 17.44 42.2384 17.44C48.0784 17.44 52.3984 21.96 52.3984 28C52.3984 28.84 52.3184 29.64 52.1584 30.4H37.9584ZM37.8384 25.92H46.4384C45.7984 23.6 43.9984 22.76 42.1984 22.76C39.9184 22.76 38.3984 23.88 37.8384 25.92ZM60.7003 23.84C60.7003 26.12 70.5403 24.6 70.5403 32C70.5403 36.6 66.5403 38.56 62.2203 38.56C58.2203 38.56 55.1803 37.04 53.6203 33.8L58.8203 30.84C59.3403 32.36 60.4603 33.2 62.2203 33.2C63.6603 33.2 64.3803 32.76 64.3803 31.96C64.3803 29.76 54.5403 30.92 54.5403 24C54.5403 19.64 58.2203 17.44 62.3803 17.44C65.6203 17.44 68.5003 18.88 70.1803 21.72L65.0603 24.48C64.5003 23.44 63.7003 22.72 62.3803 22.72C61.3403 22.72 60.7003 23.12 60.7003 23.84ZM76.5359 16.24C74.5759 16.24 72.9359 14.6 72.9359 12.64C72.9359 10.68 74.5759 9.04 76.5359 9.04C78.4959 9.04 80.1359 10.68 80.1359 12.64C80.1359 14.6 78.4959 16.24 76.5359 16.24ZM73.5359 38V18H79.5359V38H73.5359ZM98.6066 18H104.447V37C104.447 43.72 99.2066 46.56 93.8866 46.56C89.7266 46.56 86.2466 45 84.4066 41.72L89.5266 38.76C90.2866 40.16 91.4466 41.28 94.0866 41.28C96.8866 41.28 98.6066 39.84 98.6066 37V35.16C97.2866 36.8 95.3666 37.76 92.7666 37.76C87.0866 37.76 82.9266 33.12 82.9266 27.6C82.9266 22.08 87.0866 17.44 92.7666 17.44C95.3666 17.44 97.2866 18.4 98.6066 20.04V18ZM93.7666 32.24C96.6066 32.24 98.6066 30.36 98.6066 27.6C98.6066 24.84 96.6066 22.96 93.7666 22.96C90.9266 22.96 88.9266 24.84 88.9266 27.6C88.9266 30.36 90.9266 32.24 93.7666 32.24ZM120.568 17.44C124.608 17.44 128.048 20.32 128.048 25.72V38H122.048V26.6C122.048 24.12 120.488 22.96 118.568 22.96C116.368 22.96 114.848 24.24 114.848 27.08V38H108.848V18H114.848V19.88C115.928 18.4 117.928 17.44 120.568 17.44Z" fill="#5200FF"/>
<path opacity="0.3" d="M15.6 10C23.32 10 29.2 16.08 29.2 24C29.2 31.92 23.32 38 15.6 38H4.4V10H15.6ZM15.6 31.84C20 31.84 23.04 28.8 23.04 24C23.04 19.2 20 16.16 15.6 16.16H10.8V31.84H15.6ZM37.9584 30.4C38.7184 32.48 40.5584 33.2 42.7584 33.2C44.3984 33.2 45.7984 32.56 46.5984 31.68L51.3984 34.44C49.4384 37.16 46.4784 38.56 42.6784 38.56C35.8384 38.56 31.5984 33.96 31.5984 28C31.5984 22.04 35.9184 17.44 42.2384 17.44C48.0784 17.44 52.3984 21.96 52.3984 28C52.3984 28.84 52.3184 29.64 52.1584 30.4H37.9584ZM37.8384 25.92H46.4384C45.7984 23.6 43.9984 22.76 42.1984 22.76C39.9184 22.76 38.3984 23.88 37.8384 25.92ZM60.7003 23.84C60.7003 26.12 70.5403 24.6 70.5403 32C70.5403 36.6 66.5403 38.56 62.2203 38.56C58.2203 38.56 55.1803 37.04 53.6203 33.8L58.8203 30.84C59.3403 32.36 60.4603 33.2 62.2203 33.2C63.6603 33.2 64.3803 32.76 64.3803 31.96C64.3803 29.76 54.5403 30.92 54.5403 24C54.5403 19.64 58.2203 17.44 62.3803 17.44C65.6203 17.44 68.5003 18.88 70.1803 21.72L65.0603 24.48C64.5003 23.44 63.7003 22.72 62.3803 22.72C61.3403 22.72 60.7003 23.12 60.7003 23.84ZM76.5359 16.24C74.5759 16.24 72.9359 14.6 72.9359 12.64C72.9359 10.68 74.5759 9.04 76.5359 9.04C78.4959 9.04 80.1359 10.68 80.1359 12.64C80.1359 14.6 78.4959 16.24 76.5359 16.24ZM73.5359 38V18H79.5359V38H73.5359ZM98.6066 18H104.447V37C104.447 43.72 99.2066 46.56 93.8866 46.56C89.7266 46.56 86.2466 45 84.4066 41.72L89.5266 38.76C90.2866 40.16 91.4466 41.28 94.0866 41.28C96.8866 41.28 98.6066 39.84 98.6066 37V35.16C97.2866 36.8 95.3666 37.76 92.7666 37.76C87.0866 37.76 82.9266 33.12 82.9266 27.6C82.9266 22.08 87.0866 17.44 92.7666 17.44C95.3666 17.44 97.2866 18.4 98.6066 20.04V18ZM93.7666 32.24C96.6066 32.24 98.6066 30.36 98.6066 27.6C98.6066 24.84 96.6066 22.96 93.7666 22.96C90.9266 22.96 88.9266 24.84 88.9266 27.6C88.9266 30.36 90.9266 32.24 93.7666 32.24ZM120.568 17.44C124.608 17.44 128.048 20.32 128.048 25.72V38H122.048V26.6C122.048 24.12 120.488 22.96 118.568 22.96C116.368 22.96 114.848 24.24 114.848 27.08V38H108.848V18H114.848V19.88C115.928 18.4 117.928 17.44 120.568 17.44Z" fill="white"/>
<path d="M13.6 12C21.32 12 27.2 18.08 27.2 26C27.2 33.92 21.32 40 13.6 40H2.4V12H13.6ZM13.6 33.84C18 33.84 21.04 30.8 21.04 26C21.04 21.2 18 18.16 13.6 18.16H8.8V33.84H13.6ZM35.9584 32.4C36.7184 34.48 38.5584 35.2 40.7584 35.2C42.3984 35.2 43.7984 34.56 44.5984 33.68L49.3984 36.44C47.4384 39.16 44.4784 40.56 40.6784 40.56C33.8384 40.56 29.5984 35.96 29.5984 30C29.5984 24.04 33.9184 19.44 40.2384 19.44C46.0784 19.44 50.3984 23.96 50.3984 30C50.3984 30.84 50.3184 31.64 50.1584 32.4H35.9584ZM35.8384 27.92H44.4384C43.7984 25.6 41.9984 24.76 40.1984 24.76C37.9184 24.76 36.3984 25.88 35.8384 27.92ZM58.7003 25.84C58.7003 28.12 68.5403 26.6 68.5403 34C68.5403 38.6 64.5403 40.56 60.2203 40.56C56.2203 40.56 53.1803 39.04 51.6203 35.8L56.8203 32.84C57.3403 34.36 58.4603 35.2 60.2203 35.2C61.6603 35.2 62.3803 34.76 62.3803 33.96C62.3803 31.76 52.5403 32.92 52.5403 26C52.5403 21.64 56.2203 19.44 60.3803 19.44C63.6203 19.44 66.5003 20.88 68.1803 23.72L63.0603 26.48C62.5003 25.44 61.7003 24.72 60.3803 24.72C59.3403 24.72 58.7003 25.12 58.7003 25.84ZM74.5359 18.24C72.5759 18.24 70.9359 16.6 70.9359 14.64C70.9359 12.68 72.5759 11.04 74.5359 11.04C76.4959 11.04 78.1359 12.68 78.1359 14.64C78.1359 16.6 76.4959 18.24 74.5359 18.24ZM71.5359 40V20H77.5359V40H71.5359ZM96.6066 20H102.447V39C102.447 45.72 97.2066 48.56 91.8866 48.56C87.7266 48.56 84.2466 47 82.4066 43.72L87.5266 40.76C88.2866 42.16 89.4466 43.28 92.0866 43.28C94.8866 43.28 96.6066 41.84 96.6066 39V37.16C95.2866 38.8 93.3666 39.76 90.7666 39.76C85.0866 39.76 80.9266 35.12 80.9266 29.6C80.9266 24.08 85.0866 19.44 90.7666 19.44C93.3666 19.44 95.2866 20.4 96.6066 22.04V20ZM91.7666 34.24C94.6066 34.24 96.6066 32.36 96.6066 29.6C96.6066 26.84 94.6066 24.96 91.7666 24.96C88.9266 24.96 86.9266 26.84 86.9266 29.6C86.9266 32.36 88.9266 34.24 91.7666 34.24ZM118.568 19.44C122.608 19.44 126.048 22.32 126.048 27.72V40H120.048V28.6C120.048 26.12 118.488 24.96 116.568 24.96C114.368 24.96 112.848 26.24 112.848 29.08V40H106.848V20H112.848V21.88C113.928 20.4 115.928 19.44 118.568 19.44Z" fill="black"/>
</svg>
