<svg width="114" height="71" viewBox="0 0 114 71" fill="none" xmlns="http://www.w3.org/2000/svg">
<path d="M81.2963 53.3608C81.0042 53.7068 80.6883 54.0135 80.3409 54.2809C79.9777 54.5561 79.5277 54.8628 78.9828 55.201C77.4511 56.1133 76.1957 56.7503 75.3192 57.0963C75.6272 57.285 76.3773 57.3951 77.5537 57.4187C78.1854 57.285 78.7144 57.0177 79.1408 56.6166C79.575 56.1919 80.0093 55.7908 80.4672 55.4133C80.9015 55.0123 81.3753 54.6898 81.8806 54.4618C82.3859 54.2258 83.0255 54.1865 83.7834 54.3359C84.2967 54.5876 84.6204 54.7213 84.7783 54.7292C84.9283 54.7292 85.0468 54.7134 85.1178 54.6741C85.1889 54.6348 85.3073 54.6191 85.4573 54.6269C85.5916 54.6269 85.9311 54.7606 86.4601 55.028C86.9891 55.2718 87.3207 55.6257 87.4707 56.1054C87.6681 56.5851 87.7392 57.1356 87.6523 57.749C87.5655 58.386 87.2812 59.0467 86.7443 59.7387C86.0495 60.4386 85.0941 61.0914 83.8782 61.6812C80.6488 63.0496 77.5774 63.7967 75.0508 63.9146C71.553 64.2371 68.7579 63.6473 66.7129 62.1216C64.1784 60.0454 63.2941 57.1671 63.8468 53.7068C64.0679 52.1497 64.7232 50.451 65.7654 48.6029C66.6182 47.0457 67.7631 45.8425 69.1922 44.9617C70.795 43.9865 72.5873 43.3574 74.5849 43.0664C76.6773 42.8069 78.4459 43.3102 79.9461 44.537C80.7199 45.1819 81.3516 46.1099 81.8648 47.3131C82.4728 48.8781 82.7333 50.0263 82.5912 50.7891C82.4806 51.5598 82.0543 52.4092 81.2963 53.3608ZM75.2877 49.2949C73.6454 49.4129 72.8637 50.3487 73.0216 52.1182C73.0374 52.6058 73.14 53.1012 73.3453 53.6124C74.4507 53.4001 75.2008 52.6844 75.6035 51.4891C75.7377 51.0329 75.7693 50.6004 75.7061 50.1993C75.643 49.7825 75.5009 49.4837 75.2877 49.2949Z" fill="#FF00F5"/>
<path d="M47.4978 38.642C47.8147 39.1849 47.9925 39.5469 48.0311 39.7429C48.1161 40.1351 47.9461 40.4895 47.4978 40.8062C47.4978 40.8213 47.4668 40.8514 47.4127 40.9042C47.7219 41.9072 47.8224 42.8724 47.6987 43.7924C47.5751 44.7425 47.3895 45.6701 47.1345 46.575C48.7964 44.3127 49.9945 42.6914 50.8448 41.6583C52.4603 39.577 53.9058 38.0689 55.2662 37.1036C55.7223 36.8095 56.2865 36.5607 56.9822 36.3646C57.6856 36.146 58.3736 36.0178 59.0616 36.0027C59.7418 35.9801 60.3602 36.1007 60.8935 36.3571C61.4501 36.621 61.8211 37.081 61.9989 37.7522C62.625 41.9524 63.1506 46.0245 63.6376 49.9683C64.2946 54.0932 64.712 58.3463 64.6347 62.7652C64.6553 62.7903 64.6734 62.8155 64.6889 62.8406C64.6631 62.8456 64.6399 62.8507 64.6193 62.8557C64.5652 63.9265 63.5062 64.937 61.4037 65.8871C59.2703 66.8071 57.1677 67.2973 55.1193 67.3123C52.5762 67.3199 51.2158 66.7392 51.1308 65.6534C51.0638 65.3065 50.9942 64.9596 50.9221 64.6127C50.9169 64.5825 50.9092 64.5524 50.8989 64.5222C50.9298 63.7908 50.9298 63.3006 50.8757 63.0744C50.8525 62.7954 50.868 62.6144 50.8911 62.4862C50.8293 61.7246 50.8834 61.0082 51.0612 60.3521C51.2622 59.6584 51.3936 59.1154 51.4632 58.7082C51.525 58.3085 51.5946 57.939 51.6796 57.5922C51.7414 57.2302 51.7801 56.9437 51.8033 56.7476C50.3423 58.3689 49.2215 59.3944 48.5026 59.7866C46.6552 60.7895 44.3517 61.3777 41.6463 61.5285C39.9612 61.5813 39.0259 61.4154 38.8327 61.0459C38.4848 60.2541 38.2529 59.7941 38.0751 59.6584C37.8432 59.4472 37.7041 59.0777 37.65 58.5348C35.4779 61.9432 33.4218 64.4166 31.5589 65.8947C30.7782 66.4753 30.0052 66.9956 29.2477 67.4632C28.0573 68.4435 25.7616 69.1674 22.3141 69.6198C18.9825 70.0723 15.9447 70.1251 13.2857 69.7556C10.6653 69.4012 10.0314 68.632 11.3687 67.4707C12.7678 66.2868 14.7466 64.8163 17.166 63.097C19.3767 61.3928 21.5566 59.6433 23.6977 57.8561C29.0158 52.5549 31.729 49.3425 32.9426 47.9248C34.0943 46.5297 34.96 45.4665 35.6093 44.7048C37.0625 42.9553 38.1988 41.7111 39.0877 40.9419C40.0926 39.5921 41.5381 38.7777 43.4628 38.4459C44.9779 38.1443 46.3151 38.2121 47.4978 38.642Z" fill="#00F0FF"/>
<path d="M95.0187 2.49219C95.0223 2.44318 95.0327 2.39152 95.0501 2.3372C95.2907 2.2491 95.5357 2.15729 95.7853 2.06178C96.2006 1.45606 96.8211 1.12326 97.6615 1.06964C98.1065 1.06608 98.6966 1.0487 99.4227 1.03886C100.124 1.02672 101.053 0.927028 102.154 0.732039C102.474 0.430855 103.406 0.36593 104.973 0.546692C106.506 0.704624 108.074 1.00394 109.607 1.46536C111.182 1.91086 112.357 2.47994 113.131 3.17258C113.861 3.90566 113.896 4.57735 113.333 5.20402C112.764 5.80303 112.312 6.24999 111.949 6.54971C111.653 6.83581 111.341 7.09825 111.01 7.34414C110.715 7.60574 110.351 7.88807 109.886 8.20307C109.505 8.50363 108.973 8.91603 108.323 9.4386C107.254 10.3124 106.2 11.1925 105.16 12.0789C104.822 12.4228 104.551 12.61 104.354 12.6438C104.192 12.6758 104.027 12.7569 103.848 12.8909C104.29 12.8945 104.651 12.9054 104.94 12.9196C105.233 12.9267 105.52 12.9481 105.809 12.9623C106.468 13.008 107.235 13.066 108.06 13.1492C108.541 13.287 108.962 13.3997 109.319 13.4596C109.625 13.5172 109.931 13.5749 110.237 13.6326C110.757 13.7371 111.336 13.9505 111.964 14.3116C112.572 14.6388 112.891 15.0529 112.897 15.5689C112.891 16.0716 112.72 16.5542 112.364 17.0001C112.001 17.4429 111.45 17.8561 110.722 18.2184C109.99 18.5879 109.243 18.7069 108.465 18.5936C104.582 18.6442 101.924 18.5359 100.417 18.2965C100.261 18.376 100.104 18.4602 99.944 18.5491C99.9399 18.5586 99.9338 18.5728 99.9257 18.5918C99.2822 19.2432 98.5492 20.0837 97.709 21.1142C96.9268 22.1105 96.0756 23.1869 95.1555 24.3432C94.2892 25.4552 93.4284 26.5948 92.5524 27.77C91.7112 28.8842 90.9138 29.9162 90.1364 30.8809C87.7975 33.9742 86.4271 35.4519 85.8058 35.4812C85.5811 35.4778 85.3569 35.4326 85.1272 35.3597C84.9134 35.3105 84.7909 35.2918 84.7597 35.3038C83.8824 34.8532 83.1728 34.3564 82.6454 33.8196C82.1004 33.2836 81.7509 32.8396 81.5938 32.4946C81.4294 32.1465 81.4304 31.8186 81.6053 31.5312C82.9008 27.4195 84.7667 22.8274 87.1086 17.6302C86.3767 17.5112 85.8715 17.4723 85.5882 17.5449C85.059 17.6641 84.4334 17.6832 83.704 17.599C83.6824 17.5953 83.6667 17.5914 83.6568 17.5872C83.0994 17.467 82.5912 17.1909 82.1186 16.7702C81.6314 16.3431 81.3027 15.8911 81.1251 15.4111C80.9297 14.9318 80.934 14.4537 81.1317 13.9908C81.3178 13.5145 81.8703 13.1779 82.804 12.9873C83.9632 12.8594 84.853 12.7511 85.4264 12.6508C86.548 12.4478 87.5149 12.3219 88.3242 12.2803C89.1689 12.2369 89.6512 12.2072 89.743 12.1959C89.8678 12.1481 89.9436 12.1131 89.9882 12.0901C90.1173 12.0526 90.4571 12.0715 90.996 12.1333C91.1726 11.333 91.3272 10.5232 91.4554 9.69382C91.5658 8.86525 91.7325 8.02704 91.9642 7.19972C92.3851 5.25752 93.3751 3.69316 95.0187 2.49219Z" fill="#5200FF"/>
<path d="M60.9405 23.4031C61.2842 22.8847 61.7375 22.4801 62.3338 22.1963C62.9373 21.8659 63.5439 21.6825 64.162 21.646C64.8211 21.6009 65.4344 21.7271 65.9774 22.0407C66.5449 22.3382 66.8277 22.8277 66.8172 23.4938C66.5013 24.5382 66.3342 25.5948 66.3083 26.6948C66.2165 27.7963 66.1251 28.921 66.0339 30.0534C68.0082 28.6251 69.3193 26.6612 69.8439 24.1954C69.9354 23.4579 70.0346 22.6969 70.1417 21.9203C70.1461 21.6157 70.1505 21.3085 70.1549 20.9986C70.1925 20.4455 70.2137 19.8927 70.2183 19.3403C70.0616 18.9565 70.1209 18.6455 70.4128 18.407C70.6877 18.1455 71.0377 17.9212 71.4877 17.7412C71.9785 17.5449 72.4861 17.3559 73.0104 17.182C73.5341 16.9772 73.9241 16.6978 74.1888 16.3437C74.4532 15.9741 74.9343 15.7083 75.6399 15.5228C76.3696 15.3058 77.1104 15.2203 77.8784 15.2502C78.6628 15.2798 79.3424 15.4201 79.9091 15.679C80.467 15.9148 80.7298 16.2421 80.7137 16.6451C80.5349 19.0802 80.5848 23.33 80.4645 29.2559C80.3603 30.5513 80.2101 31.6308 80.0308 32.5018C79.5105 33.2486 78.7385 33.7994 77.7309 34.1385C76.7068 34.4779 75.6953 34.639 74.7052 34.637C73.7481 34.6421 72.9359 34.4737 72.2769 34.1394C71.6182 33.8206 71.3691 33.3613 71.5211 32.7541C70.8729 33.31 70.1825 33.8204 69.4501 34.293C68.7092 34.7579 67.7512 35.1037 66.5927 35.3299C65.4585 35.5401 64.3372 35.5796 63.2537 35.4557C62.1785 35.3394 61.2478 35.0342 60.4702 34.5553C59.7256 34.0758 59.2907 33.4192 59.1741 32.601C58.6701 29.8785 59.4141 26.866 60.9405 23.4031Z" fill="#2400FF"/>
<path d="M45.5096 24.1456C45.7475 23.759 46.1445 23.4849 46.7202 23.2846C46.8267 23.2369 46.9271 23.1943 47.029 23.1289C47.0042 22.3731 47.4085 21.7257 48.2396 21.1347C48.4457 20.9695 48.7202 20.7244 49.0692 20.394C49.4128 20.0574 49.8782 19.7033 50.4653 19.3315C51.066 18.9265 51.6493 18.6119 52.2144 18.3992C53.4588 17.8979 54.5573 17.8665 55.4888 18.3662C57.0154 19.0701 58.2191 20.4059 59.0222 22.4182C59.8819 24.7923 59.9041 27.3312 59.0598 29.9515C58.6407 31.1728 58.0274 32.2037 57.2276 33.0161C56.427 33.84 55.672 34.4954 54.9785 35.0012C54.2743 35.4945 53.6264 35.9182 53.0287 36.2775C52.4538 36.6389 51.8666 36.9244 51.2779 37.1464C50.0077 37.605 48.8316 37.5948 47.7647 37.146C46.5342 36.6533 45.631 35.3739 45.0508 33.3763C44.5255 31.6771 44.357 29.8784 44.4919 28.004C44.6186 26.2554 44.948 25.0029 45.5096 24.1456ZM52.8445 25.567C52.4583 26.0262 52.0546 26.4033 51.6355 26.6639C51.5338 26.9882 51.4602 27.3209 51.4148 27.6618C51.3716 27.9685 51.2691 28.3042 51.1066 28.6805C50.9166 29.0369 50.8201 29.1949 50.8049 29.1647C50.6874 29.8155 50.6338 30.4548 50.6502 31.0776C50.649 31.7045 50.8806 32.1974 51.3442 32.5679C52.2066 32.1121 52.8142 31.6905 53.1548 31.3133C53.49 30.9299 53.7279 30.4571 53.8956 29.9145C54.0588 29.3542 54.1125 28.8012 54.0559 28.2668C53.9555 27.2624 53.5502 26.3566 52.8445 25.567Z" fill="#42FF00"/>
<path d="M36.1933 39.4749C36.0076 39.8536 35.8215 40.2361 35.6349 40.6224C35.3049 41.1292 34.9386 41.5414 34.5331 41.8298C34.5441 41.8344 34.559 41.8393 34.5778 41.8444C34.54 41.9109 34.504 41.9795 34.4697 42.05C32.8545 43.0832 31.4158 43.5298 30.1406 43.3484C28.78 43.1552 28.0053 42.2716 27.8787 40.6556C27.067 34.4067 27.9435 27.867 29.988 21.6509C31.4334 17.8064 32.6087 15.504 33.5171 14.4904C33.9508 14.0427 34.3194 13.9418 34.6497 14.1549C34.732 13.7517 34.8828 13.4685 35.0802 13.2923C35.2764 13.1274 35.4861 13.0557 35.7258 13.084C35.9564 13.0886 36.1965 13.1688 36.4587 13.3138C36.7118 13.4352 36.94 13.6298 37.1369 13.9028C37.3568 14.1773 37.49 14.4516 37.5303 14.7309C37.5769 15.0049 37.5752 15.2986 37.5138 15.6111C37.4536 15.9121 37.3618 16.2398 37.2395 16.5826C37.116 16.9369 37.004 17.2919 36.8896 17.6698C36.0554 20.9696 35.4234 23.7132 35.069 25.5662C35.1608 25.4613 35.2508 25.3543 35.3392 25.2453C36.6334 23.6885 38.0564 22.6706 39.6114 22.1055C40.295 21.8653 40.9299 21.76 41.539 21.7911C42.158 21.7826 42.6805 21.9804 43.1001 22.3899C43.5501 22.7843 43.904 23.4369 44.149 24.3584C44.413 25.2639 44.5595 26.2995 44.5798 27.4933C44.5834 28.6801 44.4589 29.9328 44.2011 31.2454C43.9536 32.5702 43.6009 33.7954 43.143 34.9212C42.1131 37.4354 40.8392 38.7978 39.264 39.0562C38.6758 39.4355 37.8471 39.5158 36.7539 39.3068C36.5114 39.2495 36.2947 39.2228 36.0921 39.2259C36.1259 39.3089 36.1596 39.3919 36.1933 39.4749ZM36.2608 36.7148C36.4849 36.1717 36.8494 35.1662 37.3572 33.7271C37.907 32.2737 38.2391 31.191 38.3575 30.4966C38.4859 29.7625 38.2669 29.2576 37.7005 28.9818C37.1262 28.6709 36.6764 29.3306 36.3445 30.9663C35.8546 33.622 35.847 35.528 36.2608 36.7148Z" fill="#FF9900"/>
<path d="M29.1883 19.3673C30.4019 19.8539 31.0398 20.5102 31.1516 21.3418C29.9731 23.9695 29.2064 26.6183 28.7841 29.2513C28.5895 31.8342 28.5062 33.9737 28.4608 35.6811C28.4862 37.3216 28.573 38.505 28.6908 39.2886C28.8482 40.0384 28.9892 40.7891 29.1374 41.5155C29.1575 41.7164 29.1803 41.9173 29.2059 42.118C29.2645 42.3225 29.3142 42.5115 29.3546 42.677C29.4121 42.8577 29.4618 43.0467 29.5283 43.2429C29.3002 43.827 28.7236 44.1561 27.7176 44.2577C26.5751 44.4293 25.4075 44.4108 24.2063 44.1946C23.4954 44.0994 22.9168 43.6636 22.5187 42.8609C22.3965 42.5238 22.1388 42.0973 21.7623 41.5885C21.4086 41.0388 21.1487 40.5645 20.9584 40.1747C20.9465 40.154 20.9348 40.136 20.9231 40.1206C20.1291 40.5472 19.486 41.0387 18.9844 41.5716C18.4828 42.1044 18.1693 42.4375 18.0614 42.5938C17.9275 42.7195 17.7204 42.8644 17.4478 43.0123C17.1499 43.1454 16.868 43.2698 16.6342 43.3681C15.9955 43.5964 15.602 43.7976 15.4535 43.9638C15.5008 46.2646 14.9884 47.6427 13.6417 48.3814C12.8096 48.8736 11.7942 49.3103 10.5878 49.7C9.38161 50.0976 8.02848 50.3345 6.51978 50.4033C4.40591 50.7147 2.44209 49.9914 2.23948 45.9045C2.29587 43.5352 2.62353 40.6275 3.17471 37.2156C3.70165 33.8127 4.14084 30.8282 4.65844 28.3024C6.33595 23.1019 10.4443 19.1374 17.0428 16.4461C18.145 16.2923 19.3285 16.1189 20.6175 15.9167C21.8811 15.6998 23.06 15.6062 24.1296 15.6372C25.2241 15.675 26.2645 15.787 27.2682 15.9962C28.2388 16.1991 28.9737 16.4604 29.5226 16.7861C30.7406 17.5514 30.5983 18.3946 29.1883 19.3673ZM16.5896 29.5837C16.3608 31.2358 16.1598 32.775 15.9608 34.1786C15.7857 35.5652 15.6835 36.7493 15.6476 37.763C16.9909 37.4309 18.3185 37.1154 19.6305 36.8165C19.2076 35.2898 18.8732 33.7192 18.6282 32.1286C18.4302 30.488 18.2728 28.8377 18.1639 27.1691C17.6143 27.9698 17.0895 28.7747 16.5896 29.5837ZM18.2935 37.2281C18.7658 37.1348 19.2289 37.0181 19.6666 36.8866C19.6606 36.8763 19.6573 36.8631 19.6566 36.8472C19.2342 36.9541 18.836 37.052 18.4789 37.1479C18.1221 37.2518 18.0572 37.2707 18.2935 37.2281Z" fill="#FF0000"/>
<path d="M81.2963 53.3608C81.0042 53.7068 80.6883 54.0135 80.3409 54.2809C79.9777 54.5561 79.5277 54.8628 78.9828 55.201C77.4511 56.1133 76.1957 56.7503 75.3192 57.0963C75.6272 57.285 76.3773 57.3951 77.5537 57.4187C78.1854 57.285 78.7144 57.0177 79.1408 56.6166C79.575 56.1919 80.0093 55.7908 80.4672 55.4133C80.9015 55.0123 81.3753 54.6898 81.8806 54.4618C82.3859 54.2258 83.0255 54.1865 83.7834 54.3359C84.2967 54.5876 84.6204 54.7213 84.7783 54.7292C84.9283 54.7292 85.0468 54.7134 85.1178 54.6741C85.1889 54.6348 85.3073 54.6191 85.4573 54.6269C85.5916 54.6269 85.9311 54.7606 86.4601 55.028C86.9891 55.2718 87.3207 55.6257 87.4707 56.1054C87.6681 56.5851 87.7392 57.1356 87.6523 57.749C87.5655 58.386 87.2812 59.0467 86.7443 59.7387C86.0495 60.4386 85.0941 61.0914 83.8782 61.6812C80.6488 63.0496 77.5774 63.7967 75.0508 63.9146C71.553 64.2371 68.7579 63.6473 66.7129 62.1216C64.1784 60.0454 63.2941 57.1671 63.8468 53.7068C64.0679 52.1497 64.7232 50.451 65.7654 48.6029C66.6182 47.0457 67.7631 45.8425 69.1922 44.9617C70.795 43.9865 72.5873 43.3574 74.5849 43.0664C76.6773 42.8069 78.4459 43.3102 79.9461 44.537C80.7199 45.1819 81.3516 46.1099 81.8648 47.3131C82.4728 48.8781 82.7333 50.0263 82.5912 50.7891C82.4806 51.5598 82.0543 52.4092 81.2963 53.3608ZM75.2877 49.2949C73.6454 49.4129 72.8637 50.3487 73.0216 52.1182C73.0374 52.6058 73.14 53.1012 73.3453 53.6124C74.4507 53.4001 75.2008 52.6844 75.6035 51.4891C75.7377 51.0329 75.7693 50.6004 75.7061 50.1993C75.643 49.7825 75.5009 49.4837 75.2877 49.2949Z" fill="white" fill-opacity="0.4"/>
<path d="M47.4978 38.642C47.8147 39.1849 47.9925 39.5469 48.0311 39.7429C48.1161 40.1351 47.9461 40.4895 47.4978 40.8062C47.4978 40.8213 47.4668 40.8514 47.4127 40.9042C47.7219 41.9072 47.8224 42.8724 47.6987 43.7924C47.5751 44.7425 47.3895 45.6701 47.1345 46.575C48.7964 44.3127 49.9945 42.6914 50.8448 41.6583C52.4603 39.577 53.9058 38.0689 55.2662 37.1036C55.7223 36.8095 56.2865 36.5607 56.9822 36.3646C57.6856 36.146 58.3736 36.0178 59.0616 36.0027C59.7418 35.9801 60.3602 36.1007 60.8935 36.3571C61.4501 36.621 61.8211 37.081 61.9989 37.7522C62.625 41.9524 63.1506 46.0245 63.6376 49.9683C64.2946 54.0932 64.712 58.3463 64.6347 62.7652C64.6553 62.7903 64.6734 62.8155 64.6889 62.8406C64.6631 62.8456 64.6399 62.8507 64.6193 62.8557C64.5652 63.9265 63.5062 64.937 61.4037 65.8871C59.2703 66.8071 57.1677 67.2973 55.1193 67.3123C52.5762 67.3199 51.2158 66.7392 51.1308 65.6534C51.0638 65.3065 50.9942 64.9596 50.9221 64.6127C50.9169 64.5825 50.9092 64.5524 50.8989 64.5222C50.9298 63.7908 50.9298 63.3006 50.8757 63.0744C50.8525 62.7954 50.868 62.6144 50.8911 62.4862C50.8293 61.7246 50.8834 61.0082 51.0612 60.3521C51.2622 59.6584 51.3936 59.1154 51.4632 58.7082C51.525 58.3085 51.5946 57.939 51.6796 57.5922C51.7414 57.2302 51.7801 56.9437 51.8033 56.7476C50.3423 58.3689 49.2215 59.3944 48.5026 59.7866C46.6552 60.7895 44.3517 61.3777 41.6463 61.5285C39.9612 61.5813 39.0259 61.4154 38.8327 61.0459C38.4848 60.2541 38.2529 59.7941 38.0751 59.6584C37.8432 59.4472 37.7041 59.0777 37.65 58.5348C35.4779 61.9432 33.4218 64.4166 31.5589 65.8947C30.7782 66.4753 30.0052 66.9956 29.2477 67.4632C28.0573 68.4435 25.7616 69.1674 22.3141 69.6198C18.9825 70.0723 15.9447 70.1251 13.2857 69.7556C10.6653 69.4012 10.0314 68.632 11.3687 67.4707C12.7678 66.2868 14.7466 64.8163 17.166 63.097C19.3767 61.3928 21.5566 59.6433 23.6977 57.8561C29.0158 52.5549 31.729 49.3425 32.9426 47.9248C34.0943 46.5297 34.96 45.4665 35.6093 44.7048C37.0625 42.9553 38.1988 41.7111 39.0877 40.9419C40.0926 39.5921 41.5381 38.7777 43.4628 38.4459C44.9779 38.1443 46.3151 38.2121 47.4978 38.642Z" fill="white" fill-opacity="0.4"/>
<path d="M95.0187 2.49219C95.0223 2.44318 95.0327 2.39152 95.0501 2.3372C95.2907 2.2491 95.5357 2.15729 95.7853 2.06178C96.2006 1.45606 96.8211 1.12326 97.6615 1.06964C98.1065 1.06608 98.6966 1.0487 99.4227 1.03886C100.124 1.02672 101.053 0.927028 102.154 0.732039C102.474 0.430855 103.406 0.36593 104.973 0.546692C106.506 0.704624 108.074 1.00394 109.607 1.46536C111.182 1.91086 112.357 2.47994 113.131 3.17258C113.861 3.90566 113.896 4.57735 113.333 5.20402C112.764 5.80303 112.312 6.24999 111.949 6.54971C111.653 6.83581 111.341 7.09825 111.01 7.34414C110.715 7.60574 110.351 7.88807 109.886 8.20307C109.505 8.50363 108.973 8.91603 108.323 9.4386C107.254 10.3124 106.2 11.1925 105.16 12.0789C104.822 12.4228 104.551 12.61 104.354 12.6438C104.192 12.6758 104.027 12.7569 103.848 12.8909C104.29 12.8945 104.651 12.9054 104.94 12.9196C105.233 12.9267 105.52 12.9481 105.809 12.9623C106.468 13.008 107.235 13.066 108.06 13.1492C108.541 13.287 108.962 13.3997 109.319 13.4596C109.625 13.5172 109.931 13.5749 110.237 13.6326C110.757 13.7371 111.336 13.9505 111.964 14.3116C112.572 14.6388 112.891 15.0529 112.897 15.5689C112.891 16.0716 112.72 16.5542 112.364 17.0001C112.001 17.4429 111.45 17.8561 110.722 18.2184C109.99 18.5879 109.243 18.7069 108.465 18.5936C104.582 18.6442 101.924 18.5359 100.417 18.2965C100.261 18.376 100.104 18.4602 99.944 18.5491C99.9399 18.5586 99.9338 18.5728 99.9257 18.5918C99.2822 19.2432 98.5492 20.0837 97.709 21.1142C96.9268 22.1105 96.0756 23.1869 95.1555 24.3432C94.2892 25.4552 93.4284 26.5948 92.5524 27.77C91.7112 28.8842 90.9138 29.9162 90.1364 30.8809C87.7975 33.9742 86.4271 35.4519 85.8058 35.4812C85.5811 35.4778 85.3569 35.4326 85.1272 35.3597C84.9134 35.3105 84.7909 35.2918 84.7597 35.3038C83.8824 34.8532 83.1728 34.3564 82.6454 33.8196C82.1004 33.2836 81.7509 32.8396 81.5938 32.4946C81.4294 32.1465 81.4304 31.8186 81.6053 31.5312C82.9008 27.4195 84.7667 22.8274 87.1086 17.6302C86.3767 17.5112 85.8715 17.4723 85.5882 17.5449C85.059 17.6641 84.4334 17.6832 83.704 17.599C83.6824 17.5953 83.6667 17.5914 83.6568 17.5872C83.0994 17.467 82.5912 17.1909 82.1186 16.7702C81.6314 16.3431 81.3027 15.8911 81.1251 15.4111C80.9297 14.9318 80.934 14.4537 81.1317 13.9908C81.3178 13.5145 81.8703 13.1779 82.804 12.9873C83.9632 12.8594 84.853 12.7511 85.4264 12.6508C86.548 12.4478 87.5149 12.3219 88.3242 12.2803C89.1689 12.2369 89.6512 12.2072 89.743 12.1959C89.8678 12.1481 89.9436 12.1131 89.9882 12.0901C90.1173 12.0526 90.4571 12.0715 90.996 12.1333C91.1726 11.333 91.3272 10.5232 91.4554 9.69382C91.5658 8.86525 91.7325 8.02704 91.9642 7.19972C92.3851 5.25752 93.3751 3.69316 95.0187 2.49219Z" fill="white" fill-opacity="0.4"/>
<path d="M60.9405 23.4031C61.2842 22.8847 61.7375 22.4801 62.3338 22.1963C62.9373 21.8659 63.5439 21.6825 64.162 21.646C64.8211 21.6009 65.4344 21.7271 65.9774 22.0407C66.5449 22.3382 66.8277 22.8277 66.8172 23.4938C66.5013 24.5382 66.3342 25.5948 66.3083 26.6948C66.2165 27.7963 66.1251 28.921 66.0339 30.0534C68.0082 28.6251 69.3193 26.6612 69.8439 24.1954C69.9354 23.4579 70.0346 22.6969 70.1417 21.9203C70.1461 21.6157 70.1505 21.3085 70.1549 20.9986C70.1925 20.4455 70.2137 19.8927 70.2183 19.3403C70.0616 18.9565 70.1209 18.6455 70.4128 18.407C70.6877 18.1455 71.0377 17.9212 71.4877 17.7412C71.9785 17.5449 72.4861 17.3559 73.0104 17.182C73.5341 16.9772 73.9241 16.6978 74.1888 16.3437C74.4532 15.9741 74.9343 15.7083 75.6399 15.5228C76.3696 15.3058 77.1104 15.2203 77.8784 15.2502C78.6628 15.2798 79.3424 15.4201 79.9091 15.679C80.467 15.9148 80.7298 16.2421 80.7137 16.6451C80.5349 19.0802 80.5848 23.33 80.4645 29.2559C80.3603 30.5513 80.2101 31.6308 80.0308 32.5018C79.5105 33.2486 78.7385 33.7994 77.7309 34.1385C76.7068 34.4779 75.6953 34.639 74.7052 34.637C73.7481 34.6421 72.9359 34.4737 72.2769 34.1394C71.6182 33.8206 71.3691 33.3613 71.5211 32.7541C70.8729 33.31 70.1825 33.8204 69.4501 34.293C68.7092 34.7579 67.7512 35.1037 66.5927 35.3299C65.4585 35.5401 64.3372 35.5796 63.2537 35.4557C62.1785 35.3394 61.2478 35.0342 60.4702 34.5553C59.7256 34.0758 59.2907 33.4192 59.1741 32.601C58.6701 29.8785 59.4141 26.866 60.9405 23.4031Z" fill="white" fill-opacity="0.4"/>
<path d="M45.5096 24.1456C45.7475 23.759 46.1445 23.4849 46.7202 23.2846C46.8267 23.2369 46.9271 23.1943 47.029 23.1289C47.0042 22.3731 47.4085 21.7257 48.2396 21.1347C48.4457 20.9695 48.7202 20.7244 49.0692 20.394C49.4128 20.0574 49.8782 19.7033 50.4653 19.3315C51.066 18.9265 51.6493 18.6119 52.2144 18.3992C53.4588 17.8979 54.5573 17.8665 55.4888 18.3662C57.0154 19.0701 58.2191 20.4059 59.0222 22.4182C59.8819 24.7923 59.9041 27.3312 59.0598 29.9515C58.6407 31.1728 58.0274 32.2037 57.2276 33.0161C56.427 33.84 55.672 34.4954 54.9785 35.0012C54.2743 35.4945 53.6264 35.9182 53.0287 36.2775C52.4538 36.6389 51.8666 36.9244 51.2779 37.1464C50.0077 37.605 48.8316 37.5948 47.7647 37.146C46.5342 36.6533 45.631 35.3739 45.0508 33.3763C44.5255 31.6771 44.357 29.8784 44.4919 28.004C44.6186 26.2554 44.948 25.0029 45.5096 24.1456ZM52.8445 25.567C52.4583 26.0262 52.0546 26.4033 51.6355 26.6639C51.5338 26.9882 51.4602 27.3209 51.4148 27.6618C51.3716 27.9685 51.2691 28.3042 51.1066 28.6805C50.9166 29.0369 50.8201 29.1949 50.8049 29.1647C50.6874 29.8155 50.6338 30.4548 50.6502 31.0776C50.649 31.7045 50.8806 32.1974 51.3442 32.5679C52.2066 32.1121 52.8142 31.6905 53.1548 31.3133C53.49 30.9299 53.7279 30.4571 53.8956 29.9145C54.0588 29.3542 54.1125 28.8012 54.0559 28.2668C53.9555 27.2624 53.5502 26.3566 52.8445 25.567Z" fill="white" fill-opacity="0.4"/>
<path d="M36.1933 39.4749C36.0076 39.8536 35.8215 40.2361 35.6349 40.6224C35.3049 41.1292 34.9386 41.5414 34.5331 41.8298C34.5441 41.8344 34.559 41.8393 34.5778 41.8444C34.54 41.9109 34.504 41.9795 34.4697 42.05C32.8545 43.0832 31.4158 43.5298 30.1406 43.3484C28.78 43.1552 28.0053 42.2716 27.8787 40.6556C27.067 34.4067 27.9435 27.867 29.988 21.6509C31.4334 17.8064 32.6087 15.504 33.5171 14.4904C33.9508 14.0427 34.3194 13.9418 34.6497 14.1549C34.732 13.7517 34.8828 13.4685 35.0802 13.2923C35.2764 13.1274 35.4861 13.0557 35.7258 13.084C35.9564 13.0886 36.1965 13.1688 36.4587 13.3138C36.7118 13.4352 36.94 13.6298 37.1369 13.9028C37.3568 14.1773 37.49 14.4516 37.5303 14.7309C37.5769 15.0049 37.5752 15.2986 37.5138 15.6111C37.4536 15.9121 37.3618 16.2398 37.2395 16.5826C37.116 16.9369 37.004 17.2919 36.8896 17.6698C36.0554 20.9696 35.4234 23.7132 35.069 25.5662C35.1608 25.4613 35.2508 25.3543 35.3392 25.2453C36.6334 23.6885 38.0564 22.6706 39.6114 22.1055C40.295 21.8653 40.9299 21.76 41.539 21.7911C42.158 21.7826 42.6805 21.9804 43.1001 22.3899C43.5501 22.7843 43.904 23.4369 44.149 24.3584C44.413 25.2639 44.5595 26.2995 44.5798 27.4933C44.5834 28.6801 44.4589 29.9328 44.2011 31.2454C43.9536 32.5702 43.6009 33.7954 43.143 34.9212C42.1131 37.4354 40.8392 38.7978 39.264 39.0562C38.6758 39.4355 37.8471 39.5158 36.7539 39.3068C36.5114 39.2495 36.2947 39.2228 36.0921 39.2259C36.1259 39.3089 36.1596 39.3919 36.1933 39.4749ZM36.2608 36.7148C36.4849 36.1717 36.8494 35.1662 37.3572 33.7271C37.907 32.2737 38.2391 31.191 38.3575 30.4966C38.4859 29.7625 38.2669 29.2576 37.7005 28.9818C37.1262 28.6709 36.6764 29.3306 36.3445 30.9663C35.8546 33.622 35.847 35.528 36.2608 36.7148Z" fill="white" fill-opacity="0.4"/>
<path d="M29.1883 19.3673C30.4019 19.8539 31.0398 20.5102 31.1516 21.3418C29.9731 23.9695 29.2064 26.6183 28.7841 29.2513C28.5895 31.8342 28.5062 33.9737 28.4608 35.6811C28.4862 37.3216 28.573 38.505 28.6908 39.2886C28.8482 40.0384 28.9892 40.7891 29.1374 41.5155C29.1575 41.7164 29.1803 41.9173 29.2059 42.118C29.2645 42.3225 29.3142 42.5115 29.3546 42.677C29.4121 42.8577 29.4618 43.0467 29.5283 43.2429C29.3002 43.827 28.7236 44.1561 27.7176 44.2577C26.5751 44.4293 25.4075 44.4108 24.2063 44.1946C23.4954 44.0994 22.9168 43.6636 22.5187 42.8609C22.3965 42.5238 22.1388 42.0973 21.7623 41.5885C21.4086 41.0388 21.1487 40.5645 20.9584 40.1747C20.9465 40.154 20.9348 40.136 20.9231 40.1206C20.1291 40.5472 19.486 41.0387 18.9844 41.5716C18.4828 42.1044 18.1693 42.4375 18.0614 42.5938C17.9275 42.7195 17.7204 42.8644 17.4478 43.0123C17.1499 43.1454 16.868 43.2698 16.6342 43.3681C15.9955 43.5964 15.602 43.7976 15.4535 43.9638C15.5008 46.2646 14.9884 47.6427 13.6417 48.3814C12.8096 48.8736 11.7942 49.3103 10.5878 49.7C9.38161 50.0976 8.02848 50.3345 6.51978 50.4033C4.40591 50.7147 2.44209 49.9914 2.23948 45.9045C2.29587 43.5352 2.62353 40.6275 3.17471 37.2156C3.70165 33.8127 4.14084 30.8282 4.65844 28.3024C6.33595 23.1019 10.4443 19.1374 17.0428 16.4461C18.145 16.2923 19.3285 16.1189 20.6175 15.9167C21.8811 15.6998 23.06 15.6062 24.1296 15.6372C25.2241 15.675 26.2645 15.787 27.2682 15.9962C28.2388 16.1991 28.9737 16.4604 29.5226 16.7861C30.7406 17.5514 30.5983 18.3946 29.1883 19.3673ZM16.5896 29.5837C16.3608 31.2358 16.1598 32.775 15.9608 34.1786C15.7857 35.5652 15.6835 36.7493 15.6476 37.763C16.9909 37.4309 18.3185 37.1154 19.6305 36.8165C19.2076 35.2898 18.8732 33.7192 18.6282 32.1286C18.4302 30.488 18.2728 28.8377 18.1639 27.1691C17.6143 27.9698 17.0895 28.7747 16.5896 29.5837ZM18.2935 37.2281C18.7658 37.1348 19.2289 37.0181 19.6666 36.8866C19.6606 36.8763 19.6573 36.8631 19.6566 36.8472C19.2342 36.9541 18.836 37.052 18.4789 37.1479C18.1221 37.2518 18.0572 37.2707 18.2935 37.2281Z" fill="white" fill-opacity="0.4"/>
<path d="M81.5369 54.2771C81.243 54.6321 80.9083 54.9486 80.541 55.2265C80.1573 55.5043 79.6757 55.8131 79.0961 56.1604C77.4308 57.0944 76.0594 57.7428 75.1043 58.0902C75.4389 58.2831 76.2389 58.3912 77.5206 58.4066C78.2063 58.2677 78.794 57.9975 79.2593 57.5884C79.7328 57.1562 80.2063 56.7548 80.7042 56.3689C81.1695 55.952 81.6675 55.6278 82.2063 55.3886C82.745 55.1416 83.4307 55.0875 84.2552 55.2342C84.8103 55.4812 85.1777 55.6124 85.3491 55.6201C85.5042 55.6201 85.6348 55.6047 85.7083 55.5584C85.7818 55.5198 85.896 55.4966 86.0593 55.5043C86.2062 55.5043 86.5818 55.6356 87.1613 55.898C87.7491 56.145 88.1409 56.5078 88.3532 57.0018C88.6144 57.4958 88.7369 58.0593 88.6715 58.6922C88.5899 59.3406 88.2797 60.0199 87.6267 60.7146C86.7614 61.417 85.594 62.0731 84.1654 62.6674C80.4838 64.026 77.1451 64.7824 74.4675 64.9059C70.7614 65.2455 67.8471 64.6666 65.7492 63.1537C63.1206 61.0851 62.2472 58.2059 62.8921 54.7402C63.1533 53.181 63.8717 51.4828 64.99 49.638C65.9043 48.0788 67.1125 46.8747 68.6227 46.0024C70.3043 45.0222 72.1737 44.3815 74.2634 44.0805C76.4512 43.7949 78.2961 44.2734 79.8634 45.4544C80.6716 46.0719 81.341 46.975 81.8961 48.1714C82.5736 49.7152 82.892 50.873 82.7859 51.6449C82.7042 52.4323 82.3124 53.3045 81.5369 54.2771ZM75.0553 50.2555C73.3247 50.3945 72.5002 51.3362 72.6798 53.1038C72.7043 53.5978 72.8104 54.0995 73.0226 54.609C74.2063 54.3851 75.0063 53.6595 75.4226 52.4554C75.5614 51.9923 75.5859 51.56 75.5287 51.1586C75.4471 50.7418 75.292 50.4408 75.0553 50.2555Z" fill="black"/>
<path d="M46.2242 39.5902C46.5232 40.138 46.6877 40.4982 46.725 40.6933C46.7998 41.091 46.6129 41.4437 46.1794 41.7664C46.1719 41.7814 46.1495 41.819 46.0971 41.864C46.3662 42.8771 46.4335 43.8526 46.299 44.7831C46.142 45.7362 45.9327 46.6667 45.6561 47.5897C47.353 45.3084 48.5714 43.68 49.4386 42.6444C51.0682 40.5507 52.5184 39.0424 53.864 38.0819C54.305 37.7967 54.8656 37.5491 55.5459 37.3539C56.2336 37.1363 56.9139 37.0163 57.5792 37.0012C58.252 36.9862 58.8425 37.1063 59.3583 37.3689C59.9115 37.6241 60.2628 38.0894 60.4273 38.7572C60.9879 42.9671 61.4663 47.0569 61.8924 51.0492C62.4904 55.2215 62.8194 59.5365 62.64 64.0165C62.6499 64.0465 62.6624 64.074 62.6773 64.099C62.6474 64.104 62.625 64.1065 62.6101 64.1065C62.5278 65.1946 61.4663 66.2227 59.3807 67.1833C57.2577 68.1213 55.1946 68.6166 53.1613 68.6166C50.6047 68.5866 49.2218 67.9787 49.147 66.8906C49.0872 66.5404 49.0274 66.1902 48.9676 65.84C48.9577 65.81 48.9527 65.78 48.9527 65.75C48.9826 65.0145 48.9901 64.5193 48.9377 64.2866C48.9377 64.009 48.9377 63.8214 48.9676 63.6938C48.9303 62.9209 49.005 62.2005 49.1769 61.5401C49.3937 60.8422 49.5507 60.2944 49.618 59.8816C49.7002 59.4764 49.7824 59.1012 49.8647 58.756C49.9394 58.3808 49.9768 58.0956 49.9992 57.9005C48.5116 59.5365 47.3679 60.5645 46.6578 60.9548C44.7665 61.9528 42.4492 62.5306 39.7506 62.6582C38.0687 62.7032 37.1268 62.5306 36.9474 62.1629C36.6259 61.3675 36.4091 60.9022 36.2596 60.7596C36.0354 60.542 35.9008 60.1593 35.8634 59.619C33.5835 63.0409 31.4381 65.5098 29.5393 66.9656C28.747 67.5435 27.9845 68.0613 27.2145 68.5115C26.0484 69.4796 23.7759 70.185 20.3597 70.6277C17.1154 71.0705 14.0879 71.1155 11.3968 70.7778C8.72064 70.4551 8.01797 69.7122 9.33362 68.5565C10.7988 67.3559 12.8694 65.87 15.4185 64.129C17.7209 62.4031 20.0009 60.6321 22.221 58.8311C27.7303 53.503 30.5261 50.2762 31.7595 48.8504C32.9257 47.4471 33.8152 46.3815 34.4656 45.6161C35.9232 43.8676 37.0595 42.6144 37.9491 41.849C38.9732 40.4982 40.4009 39.6803 42.2922 39.3576C43.7723 39.0724 45.0805 39.1475 46.2242 39.5902Z" fill="black"/>
<path d="M90.9762 2.86234C90.975 2.81102 90.9797 2.7594 90.9903 2.70749C91.2162 2.6121 91.4456 2.51537 91.6784 2.4173C92.0332 1.78996 92.6217 1.44871 93.4365 1.39041C93.8739 1.38252 94.4428 1.37156 95.161 1.35663C95.8541 1.33945 96.7582 1.23463 97.8367 1.0265C98.1499 0.720047 99.0669 0.646116 100.614 0.824411C102.135 0.983003 103.68 1.28751 105.208 1.75402C106.745 2.19906 107.95 2.77286 108.788 3.45258C109.618 4.17124 109.75 4.83726 109.246 5.46856C108.726 6.07614 108.309 6.52442 107.961 6.83265C107.689 7.12301 107.394 7.3865 107.088 7.63656C106.81 7.89917 106.464 8.18278 106.035 8.51604C105.654 8.81889 105.145 9.23671 104.532 9.7789C103.516 10.6659 102.511 11.5628 101.516 12.4698C101.202 12.8183 100.948 13.0062 100.751 13.0405C100.597 13.0763 100.439 13.1613 100.274 13.2852C100.705 13.2916 101.058 13.2985 101.347 13.312C101.629 13.3224 101.919 13.3359 102.204 13.3392C102.859 13.3905 103.628 13.4396 104.47 13.52C104.953 13.65 105.377 13.7549 105.741 13.8172C106.06 13.869 106.376 13.9221 106.688 13.9765C107.225 14.0617 107.827 14.2768 108.499 14.6145C109.155 14.9285 109.501 15.3386 109.509 15.8672C109.513 16.3855 109.311 16.9001 108.89 17.3976C108.475 17.8808 107.918 18.3116 107.207 18.6765C106.509 19.0302 105.776 19.1405 105.002 19.0216C101.223 19.0496 98.6228 18.938 97.1461 18.6967C96.9973 18.7742 96.8498 18.8551 96.7038 18.9395C96.6977 18.9538 96.6916 18.9682 96.6855 18.9825C96.0866 19.6325 95.4144 20.4544 94.6448 21.4634C93.9304 22.445 93.1455 23.4898 92.3032 24.6285C91.5105 25.7121 90.7159 26.8204 89.9133 27.9676C89.1352 29.0576 88.3908 30.0688 87.6635 31.0195C85.4564 34.0728 84.1352 35.5402 83.5216 35.5745C83.3014 35.582 83.0775 35.5371 82.8407 35.4614C82.6272 35.4125 82.5092 35.4044 82.478 35.4165C81.5964 34.9807 80.8825 34.4979 80.3509 33.9745C79.8046 33.4449 79.4431 33.011 79.284 32.6722C79.1176 32.3302 79.1164 32.0079 79.2815 31.7229C80.4969 27.6788 82.2463 23.1771 84.3927 18.0914C83.6971 17.9721 83.2071 17.9406 82.9447 18.0063C82.448 18.1327 81.8509 18.1486 81.1621 18.0745C81.1405 18.0709 81.1248 18.067 81.115 18.0628C80.5834 17.9458 80.1026 17.6896 79.6566 17.2705C79.1898 16.8595 78.8815 16.423 78.7096 15.9516C78.5273 15.4843 78.5236 15.0256 78.7089 14.5714C78.89 14.1069 79.3971 13.7732 80.2553 13.5726C81.3387 13.4343 82.1633 13.3124 82.6906 13.216C83.7294 12.9993 84.631 12.8596 85.3896 12.8111C86.1763 12.7577 86.6228 12.7283 86.7073 12.7136C86.8217 12.6694 86.8975 12.634 86.9379 12.6005C87.0566 12.5665 87.371 12.5823 87.8916 12.6438C88.017 11.8423 88.1203 11.0314 88.1943 10.2079C88.2463 9.375 88.3441 8.53632 88.4952 7.69497C88.7233 5.7182 89.5117 4.11626 90.9762 2.86234Z" fill="black"/>
<path d="M61.3571 23.8151C61.7292 23.3044 62.2056 22.9191 62.8097 22.6587C63.4131 22.3664 64.0039 22.2101 64.5898 22.1975C65.2149 22.1841 65.7656 22.3479 66.2497 22.6886C66.7413 23.0132 66.9711 23.5191 66.9151 24.1906C66.5467 25.236 66.3118 26.3104 66.2188 27.4377C66.0788 28.5659 65.9316 29.7182 65.7925 30.8864C67.732 29.4721 69.0575 27.4964 69.6764 25.0092C69.8011 24.2644 69.9411 23.5032 70.0886 22.7259C70.1132 22.4168 70.1378 22.1077 70.1625 21.7986C70.2341 21.2491 70.2951 20.6945 70.3456 20.1348C70.2279 19.7462 70.3073 19.4413 70.5838 19.2119C70.8441 18.9589 71.1758 18.7523 71.5865 18.5839C72.0283 18.4068 72.4778 18.2296 72.9512 18.0678C73.4162 17.8822 73.77 17.6113 74.0126 17.2629C74.2551 16.9066 74.6874 16.6499 75.3013 16.4851C75.9383 16.2959 76.5934 16.2259 77.2589 16.2755C77.94 16.3247 78.5376 16.4875 79.028 16.7563C79.5179 17.0011 79.7516 17.3313 79.7369 17.7386C79.5546 20.1686 79.5517 24.4063 79.39 30.3472C79.2772 31.6504 79.1364 32.7388 78.9521 33.6206C78.4526 34.3815 77.7218 34.9318 76.752 35.2719C75.7822 35.6119 74.8162 35.7683 73.8701 35.7567C72.9555 35.7524 72.1855 35.5694 71.5682 35.2155C70.9514 34.8856 70.73 34.4035 70.8887 33.7856C70.2519 34.342 69.5907 34.8589 68.874 35.3372C68.1415 35.8078 67.2188 36.1548 66.0976 36.3624C64.9997 36.5615 63.9137 36.5848 62.8864 36.4313C61.8594 36.2937 60.9845 35.9534 60.2542 35.4344C59.5708 34.9144 59.1885 34.2203 59.1151 33.352C58.7799 30.4782 59.6661 27.3389 61.3571 23.8151Z" fill="black"/>
<path d="M44.8987 26.1957C45.1606 25.7839 45.5775 25.4907 46.1754 25.2833C46.2831 25.233 46.3909 25.1828 46.4998 25.1212C46.5184 24.3111 46.9601 23.6308 47.8365 23.0184C48.0522 22.8551 48.351 22.6 48.7204 22.2637C49.0846 21.9213 49.5763 21.5643 50.1963 21.1812C50.8299 20.7761 51.4435 20.4611 52.0238 20.2583C53.3253 19.7531 54.4434 19.739 55.3623 20.2606C56.8688 20.9912 58.0112 22.3671 58.7233 24.4238C59.4687 26.8598 59.3616 29.4698 58.3712 32.1546C57.8918 33.4209 57.2193 34.4863 56.3734 35.3235C55.5265 36.172 54.7359 36.8471 54.0172 37.3667C53.2881 37.8742 52.6121 38.3052 51.9869 38.6823C51.3969 39.0502 50.7967 39.3431 50.1968 39.5733C48.9109 40.0338 47.7307 40.0382 46.6739 39.582C45.4525 39.1096 44.5769 37.8194 44.0562 35.7978C43.5762 34.0758 43.4639 32.2174 43.6801 30.2772C43.8753 28.4385 44.2752 27.1042 44.8987 26.1957ZM52.3081 27.6756C51.8855 28.1513 51.4601 28.5355 51.0215 28.8159C50.8984 29.1509 50.8096 29.488 50.7538 29.8387C50.695 30.1606 50.5709 30.5069 50.3857 30.895C50.1849 31.2649 50.0779 31.4295 50.0583 31.394C49.9147 32.0704 49.8365 32.7225 49.8213 33.3728C49.7959 34.0111 50.0006 34.5156 50.4634 34.8938C51.356 34.4138 51.9803 33.9853 52.3436 33.5914C52.6956 33.1969 52.9639 32.717 53.1548 32.1464C53.3457 31.5758 53.4393 31.0047 53.3993 30.4537C53.3471 29.4219 52.982 28.4901 52.3081 27.6756Z" fill="black"/>
<path d="M35.7424 41.265C35.594 41.6018 35.4456 41.9386 35.2972 42.2754C35.0196 42.7273 34.7022 43.0835 34.3447 43.344C34.3552 43.3484 34.3713 43.3515 34.3929 43.3532C34.3579 43.4158 34.3268 43.475 34.2996 43.531C32.8516 44.4788 31.5257 44.9463 30.2907 44.86C28.9789 44.7786 28.1492 44.0437 27.8934 42.6079C26.5322 36.9797 26.8226 30.8988 28.5018 24.8346C29.8473 20.9003 31.0864 18.3679 32.0976 17.1406C32.5833 16.5636 33.0044 16.3789 33.3699 16.5492C33.4801 16.0787 33.6618 15.7173 33.8971 15.4799C34.1285 15.2259 34.3761 15.0875 34.646 15.0597C34.907 15.0094 35.1697 15.0573 35.4408 15.1875C35.7032 15.2953 35.9276 15.5144 36.1153 15.8341C36.3197 16.1496 36.4365 16.4692 36.4587 16.8085C36.4937 17.1271 36.4716 17.4738 36.3874 17.8429C36.316 18.1912 36.2042 18.5635 36.0628 18.9608C35.9272 19.353 35.8015 19.7569 35.6807 20.1667C34.8292 23.6661 34.2476 26.4517 33.9573 28.2965C34.0444 28.1835 34.1311 28.0742 34.2175 27.9685C35.4813 26.38 36.8855 25.3198 38.4531 24.7189C39.1363 24.4732 39.7677 24.3704 40.37 24.4014C40.9813 24.395 41.5012 24.6047 41.9187 25.0296C42.354 25.4395 42.6938 26.1087 42.932 27.0422C43.188 27.9608 43.3293 28.9955 43.348 30.1731C43.3509 31.344 43.2237 32.5645 42.988 33.8364C42.7642 35.0983 42.4463 36.2603 42.0304 37.3057C41.1299 39.6034 39.9989 40.7722 38.566 40.9318C38.0498 41.256 37.2867 41.3103 36.2529 41.1146C36.0238 41.0585 35.8241 41.0373 35.6331 41.0387C35.6695 41.1141 35.706 41.1896 35.7424 41.265ZM35.6515 38.7859C35.8357 38.2831 36.1299 37.3698 36.5568 36.0367C37.0144 34.6679 37.3022 33.6505 37.3877 32.9821C37.492 32.2879 37.2657 31.8019 36.7077 31.5347C36.1301 31.2443 35.7091 31.8863 35.4456 33.4501C35.0994 35.9384 35.1875 37.704 35.6515 38.7859Z" fill="black"/>
<path d="M25.9819 21.4524C27.2849 21.9203 28.024 22.5534 28.2413 23.3808C27.3074 25.9974 26.7741 28.6268 26.5815 31.2097C26.5739 33.7298 26.6517 35.7964 26.7261 37.4289C26.8869 38.9877 27.0765 40.1033 27.2563 40.8239C27.4839 41.5191 27.7108 42.1988 27.9369 42.863C27.9834 43.047 28.0353 43.2307 28.0927 43.4142C28.1745 43.5965 28.2555 43.7634 28.3193 43.9078C28.3922 44.0751 28.4814 44.2416 28.5791 44.4154C28.4558 44.9328 27.9548 45.227 26.9645 45.3496C25.8306 45.5486 24.6079 45.5888 23.3282 45.4532C22.5748 45.4023 21.9217 45.0444 21.4402 44.3298C21.2794 44.0269 20.9604 43.6538 20.5234 43.2008C20.1254 42.7072 19.8201 42.2792 19.5918 41.9252C19.5745 41.9053 19.5601 41.8878 19.5486 41.8729C18.7766 42.3112 18.1542 42.8048 17.6802 43.3303C17.1976 43.8485 16.894 44.1725 16.7863 44.3169C16.6779 44.4459 16.472 44.5871 16.1932 44.7394C15.8978 44.8846 15.618 45.0137 15.3615 45.1184C14.7278 45.3643 14.337 45.5682 14.1811 45.7304C14.4208 47.7663 14.027 48.9783 12.7032 49.6666C11.8987 50.1064 10.9125 50.5002 9.71207 50.8495C8.52788 51.1981 7.20631 51.3979 5.6988 51.4588C3.63516 51.6769 1.88693 51.113 0.358398 48.562C0.469798 46.169 0.810485 43.2537 1.41446 39.8458C2.00319 36.4618 2.59502 33.5042 3.10067 30.9846C4.28985 25.728 7.4393 21.5683 13.1699 18.6944C14.2478 18.5213 15.3986 18.3371 16.6377 18.1178C17.893 17.8978 19.0719 17.7898 20.1586 17.8101C21.2945 17.8359 22.4013 17.9405 23.4632 18.1325C24.5003 18.3178 25.3202 18.5751 25.9386 18.8881C27.3187 19.616 27.292 20.4623 25.9819 21.4524ZM14.5622 31.8735C14.457 33.5065 14.338 35.016 14.197 36.4025C14.0951 37.7485 14.042 38.9139 14.0376 39.891C15.386 39.5039 16.7138 39.1411 18.0208 38.8024C17.4977 37.3531 17.0779 35.8449 16.7379 34.2942C16.4286 32.7034 16.1669 31.0794 15.9126 29.4395C15.443 30.2414 14.9928 31.0527 14.5622 31.8735ZM16.6943 39.2505C17.1629 39.1439 17.6138 39.007 18.0481 38.8632C18.0479 38.858 18.042 38.848 18.0304 38.833C17.6195 38.9525 17.2245 39.0635 16.8785 39.1723C16.5161 39.2819 16.452 39.3081 16.6943 39.2505Z" fill="black"/>
</svg>
