<svg width="234" height="51" viewBox="0 0 234 51" fill="none" xmlns="http://www.w3.org/2000/svg">
<path d="M10.12 38L2.4 10H9.12L13.96 29.6L19.36 10H24.56L29.96 29.6L34.8 10H41.52L33.8 38H26.52L21.96 21.48L17.4 38H10.12ZM47.0991 30.4C47.8591 32.48 49.6991 33.2 51.8991 33.2C53.5391 33.2 54.9391 32.56 55.7391 31.68L60.5391 34.44C58.5791 37.16 55.6191 38.56 51.8191 38.56C44.9791 38.56 40.7391 33.96 40.7391 28C40.7391 22.04 45.0591 17.44 51.3791 17.44C57.2191 17.44 61.5391 21.96 61.5391 28C61.5391 28.84 61.4591 29.64 61.2991 30.4H47.0991ZM46.9791 25.92H55.5791C54.9391 23.6 53.1391 22.76 51.3391 22.76C49.0591 22.76 47.5391 23.88 46.9791 25.92ZM76.9022 17.44C82.1422 17.44 86.4622 22.04 86.4622 28C86.4622 33.96 82.1422 38.56 76.9022 38.56C74.2222 38.56 72.2622 37.64 70.9422 36.12V38H64.9422V10H70.9422V19.88C72.2622 18.36 74.2222 17.44 76.9022 17.44ZM75.7022 32.88C78.4622 32.88 80.4622 31 80.4622 28C80.4622 25 78.4622 23.12 75.7022 23.12C72.9422 23.12 70.9422 25 70.9422 28C70.9422 31 72.9422 32.88 75.7022 32.88ZM91.2641 42H88.8641L104.864 6H107.264L91.2641 42ZM138.845 10V38H132.445V21.72L125.205 33.6H124.485L117.245 21.72V38H110.845V10H117.245L124.845 22.44L132.445 10H138.845ZM153.058 38.56C147.178 38.56 142.458 33.96 142.458 28C142.458 22.04 147.178 17.44 153.058 17.44C158.938 17.44 163.658 22.04 163.658 28C163.658 33.96 158.938 38.56 153.058 38.56ZM153.058 32.72C155.658 32.72 157.658 30.84 157.658 28C157.658 25.16 155.658 23.28 153.058 23.28C150.458 23.28 148.458 25.16 148.458 28C148.458 30.84 150.458 32.72 153.058 32.72ZM179.012 17.44C184.252 17.44 188.572 22.04 188.572 28C188.572 33.96 184.252 38.56 179.012 38.56C176.332 38.56 174.372 37.64 173.052 36.12V38H167.052V10H173.052V19.88C174.372 18.36 176.332 17.44 179.012 17.44ZM177.812 32.88C180.572 32.88 182.572 31 182.572 28C182.572 25 180.572 23.12 177.812 23.12C175.052 23.12 173.052 25 173.052 28C173.052 31 175.052 32.88 177.812 32.88ZM194.973 16.24C193.013 16.24 191.373 14.6 191.373 12.64C191.373 10.68 193.013 9.04 194.973 9.04C196.933 9.04 198.573 10.68 198.573 12.64C198.573 14.6 196.933 16.24 194.973 16.24ZM191.973 38V18H197.973V38H191.973ZM202.364 38V8.8H208.364V38H202.364ZM218.115 30.4C218.875 32.48 220.715 33.2 222.915 33.2C224.555 33.2 225.955 32.56 226.755 31.68L231.555 34.44C229.595 37.16 226.635 38.56 222.835 38.56C215.995 38.56 211.755 33.96 211.755 28C211.755 22.04 216.075 17.44 222.395 17.44C228.235 17.44 232.555 21.96 232.555 28C232.555 28.84 232.475 29.64 232.315 30.4H218.115ZM217.995 25.92H226.595C225.955 23.6 224.155 22.76 222.355 22.76C220.075 22.76 218.555 23.88 217.995 25.92Z" fill="#5200FF"/>
<path d="M10.12 38L2.4 10H9.12L13.96 29.6L19.36 10H24.56L29.96 29.6L34.8 10H41.52L33.8 38H26.52L21.96 21.48L17.4 38H10.12ZM47.0991 30.4C47.8591 32.48 49.6991 33.2 51.8991 33.2C53.5391 33.2 54.9391 32.56 55.7391 31.68L60.5391 34.44C58.5791 37.16 55.6191 38.56 51.8191 38.56C44.9791 38.56 40.7391 33.96 40.7391 28C40.7391 22.04 45.0591 17.44 51.3791 17.44C57.2191 17.44 61.5391 21.96 61.5391 28C61.5391 28.84 61.4591 29.64 61.2991 30.4H47.0991ZM46.9791 25.92H55.5791C54.9391 23.6 53.1391 22.76 51.3391 22.76C49.0591 22.76 47.5391 23.88 46.9791 25.92ZM76.9022 17.44C82.1422 17.44 86.4622 22.04 86.4622 28C86.4622 33.96 82.1422 38.56 76.9022 38.56C74.2222 38.56 72.2622 37.64 70.9422 36.12V38H64.9422V10H70.9422V19.88C72.2622 18.36 74.2222 17.44 76.9022 17.44ZM75.7022 32.88C78.4622 32.88 80.4622 31 80.4622 28C80.4622 25 78.4622 23.12 75.7022 23.12C72.9422 23.12 70.9422 25 70.9422 28C70.9422 31 72.9422 32.88 75.7022 32.88ZM91.2641 42H88.8641L104.864 6H107.264L91.2641 42ZM138.845 10V38H132.445V21.72L125.205 33.6H124.485L117.245 21.72V38H110.845V10H117.245L124.845 22.44L132.445 10H138.845ZM153.058 38.56C147.178 38.56 142.458 33.96 142.458 28C142.458 22.04 147.178 17.44 153.058 17.44C158.938 17.44 163.658 22.04 163.658 28C163.658 33.96 158.938 38.56 153.058 38.56ZM153.058 32.72C155.658 32.72 157.658 30.84 157.658 28C157.658 25.16 155.658 23.28 153.058 23.28C150.458 23.28 148.458 25.16 148.458 28C148.458 30.84 150.458 32.72 153.058 32.72ZM179.012 17.44C184.252 17.44 188.572 22.04 188.572 28C188.572 33.96 184.252 38.56 179.012 38.56C176.332 38.56 174.372 37.64 173.052 36.12V38H167.052V10H173.052V19.88C174.372 18.36 176.332 17.44 179.012 17.44ZM177.812 32.88C180.572 32.88 182.572 31 182.572 28C182.572 25 180.572 23.12 177.812 23.12C175.052 23.12 173.052 25 173.052 28C173.052 31 175.052 32.88 177.812 32.88ZM194.973 16.24C193.013 16.24 191.373 14.6 191.373 12.64C191.373 10.68 193.013 9.04 194.973 9.04C196.933 9.04 198.573 10.68 198.573 12.64C198.573 14.6 196.933 16.24 194.973 16.24ZM191.973 38V18H197.973V38H191.973ZM202.364 38V8.8H208.364V38H202.364ZM218.115 30.4C218.875 32.48 220.715 33.2 222.915 33.2C224.555 33.2 225.955 32.56 226.755 31.68L231.555 34.44C229.595 37.16 226.635 38.56 222.835 38.56C215.995 38.56 211.755 33.96 211.755 28C211.755 22.04 216.075 17.44 222.395 17.44C228.235 17.44 232.555 21.96 232.555 28C232.555 28.84 232.475 29.64 232.315 30.4H218.115ZM217.995 25.92H226.595C225.955 23.6 224.155 22.76 222.355 22.76C220.075 22.76 218.555 23.88 217.995 25.92Z" fill="white" fill-opacity="0.3"/>
<path d="M8.12 40L0.4 12H7.12L11.96 31.6L17.36 12H22.56L27.96 31.6L32.8 12H39.52L31.8 40H24.52L19.96 23.48L15.4 40H8.12ZM45.0991 32.4C45.8591 34.48 47.6991 35.2 49.8991 35.2C51.5391 35.2 52.9391 34.56 53.7391 33.68L58.5391 36.44C56.5791 39.16 53.6191 40.56 49.8191 40.56C42.9791 40.56 38.7391 35.96 38.7391 30C38.7391 24.04 43.0591 19.44 49.3791 19.44C55.2191 19.44 59.5391 23.96 59.5391 30C59.5391 30.84 59.4591 31.64 59.2991 32.4H45.0991ZM44.9791 27.92H53.5791C52.9391 25.6 51.1391 24.76 49.3391 24.76C47.0591 24.76 45.5391 25.88 44.9791 27.92ZM74.9022 19.44C80.1422 19.44 84.4622 24.04 84.4622 30C84.4622 35.96 80.1422 40.56 74.9022 40.56C72.2222 40.56 70.2622 39.64 68.9422 38.12V40H62.9422V12H68.9422V21.88C70.2622 20.36 72.2222 19.44 74.9022 19.44ZM73.7022 34.88C76.4622 34.88 78.4622 33 78.4622 30C78.4622 27 76.4622 25.12 73.7022 25.12C70.9422 25.12 68.9422 27 68.9422 30C68.9422 33 70.9422 34.88 73.7022 34.88ZM89.2641 44H86.8641L102.864 8H105.264L89.2641 44ZM136.845 12V40H130.445V23.72L123.205 35.6H122.485L115.245 23.72V40H108.845V12H115.245L122.845 24.44L130.445 12H136.845ZM151.058 40.56C145.178 40.56 140.458 35.96 140.458 30C140.458 24.04 145.178 19.44 151.058 19.44C156.938 19.44 161.658 24.04 161.658 30C161.658 35.96 156.938 40.56 151.058 40.56ZM151.058 34.72C153.658 34.72 155.658 32.84 155.658 30C155.658 27.16 153.658 25.28 151.058 25.28C148.458 25.28 146.458 27.16 146.458 30C146.458 32.84 148.458 34.72 151.058 34.72ZM177.012 19.44C182.252 19.44 186.572 24.04 186.572 30C186.572 35.96 182.252 40.56 177.012 40.56C174.332 40.56 172.372 39.64 171.052 38.12V40H165.052V12H171.052V21.88C172.372 20.36 174.332 19.44 177.012 19.44ZM175.812 34.88C178.572 34.88 180.572 33 180.572 30C180.572 27 178.572 25.12 175.812 25.12C173.052 25.12 171.052 27 171.052 30C171.052 33 173.052 34.88 175.812 34.88ZM192.973 18.24C191.013 18.24 189.373 16.6 189.373 14.64C189.373 12.68 191.013 11.04 192.973 11.04C194.933 11.04 196.573 12.68 196.573 14.64C196.573 16.6 194.933 18.24 192.973 18.24ZM189.973 40V20H195.973V40H189.973ZM200.364 40V10.8H206.364V40H200.364ZM216.115 32.4C216.875 34.48 218.715 35.2 220.915 35.2C222.555 35.2 223.955 34.56 224.755 33.68L229.555 36.44C227.595 39.16 224.635 40.56 220.835 40.56C213.995 40.56 209.755 35.96 209.755 30C209.755 24.04 214.075 19.44 220.395 19.44C226.235 19.44 230.555 23.96 230.555 30C230.555 30.84 230.475 31.64 230.315 32.4H216.115ZM215.995 27.92H224.595C223.955 25.6 222.155 24.76 220.355 24.76C218.075 24.76 216.555 25.88 215.995 27.92Z" fill="black"/>
</svg>
